{"extensionsUsed" : ["KHR_materials_specular"], "accessors" : [{"bufferView" : 0, "byteOffset" : 0, "componentType" : 5123, "count" : 299997, "type" : "SCALAR", "max" : [56772], "min" : [0]}, {"bufferView" : 1, "byteOffset" : 0, "componentType" : 5126, "count" : 56773, "type" : "VEC3", "max" : [0.9281740188598633, 0.9999979734420776, 0.6034460067749023], "min" : [-0.9285209774971008, -1.0017000436782837, -0.6065009832382202], "name" : "POSITION"}, {"bufferView" : 1, "byteOffset" : 12, "componentType" : 5126, "count" : 56773, "type" : "VEC3", "max" : [0.9999494552612305, 0.9998772740364075, 1.0000041723251343], "min" : [-0.9999262094497681, -1.0000005960464478, -1.0000040531158447], "name" : "NORMAL"}, {"bufferView" : 1, "byteOffset" : 24, "componentType" : 5126, "count" : 56773, "type" : "VEC2", "max" : [0.99951171875, 1.99951171875], "min" : [0.000598907470703125, 1.01568603515625], "name" : "TEXCOORD_0"}], "asset" : {"generator" : "Aspose.3D 24.9.1", "version" : "2.0"}, "buffers" : [{"uri" : "data:application/octet-stream;base64,", "byteLength" : 2416740}], "bufferViews" : [{"buffer" : 0, "byteOffset" : 0, "byteLength" : 599996, "target" : 34963}, {"buffer" : 0, "byteOffset" : 600000, "byteLength" : 1816736, "byteStride" : 32, "target" : 34962}], "images" : [{"uri" : "data:image/jpeg;base64,"}], "materials" : [{"name" : "material_0", "extensions" : {"KHR_materials_specular" : {"specularColorFactor" : [1, 1, 1], "specularFactor" : 0.18742914264119662}}, "pbrMetallicRoughness" : {"baseColorFactor" : [1, 1, 1, 1], "baseColorTexture" : {"index" : 0, "texCoord" : 0}, "metallicFactor" : 0, "roughnessFactor" : 0.7177164730406796}, "emissiveFactor" : [0, 0, 0], "alphaMode" : "OPAQUE", "doubleSided" : true}], "meshes" : [{"primitives" : [{"attributes" : {"POSITION" : 1, "NORMAL" : 2, "TEXCOORD_0" : 3}, "indices" : 0, "material" : 0, "mode" : 4}]}], "nodes" : [{"mesh" : 0, "name" : "Object_4"}, {"children" : [0], "name" : "_0"}, {"children" : [1], "matrix" : [1, 0, 0, 0, 0, 2.220446049250313E-16, 1, 0, 0, -1, 2.220446049250313E-16, 0, 0, 0, 0, 1], "name" : "GLTF_SceneRootNode"}, {"children" : [2], "name" : "root"}, {"children" : [3], "matrix" : [1, 0, 0, 0, 0, 2.220446049250313E-16, -1, 0, 0, 1, 2.220446049250313E-16, 0, 0, 0, 0, 1], "name" : "Sketchfab_model"}], "samplers" : [{"magFilter" : 9729, "minFilter" : 9987, "wrapS" : 10497, "wrapT" : 10497}], "scene" : 0, "scenes" : [{"nodes" : [4]}], "textures" : [{"sampler" : 0, "source" : 0, "name" : ""}]}